<svg width="238" height="332" viewBox="0 0 238 332" xmlns="http://www.w3.org/2000/svg">
  <g fill-rule="nonzero" fill="none">
    <path d="M87.569 15.796l-.912-.912c-19.822-19.845-51.965-19.845-71.789 0-19.824 19.846-19.824 52.023 0 71.869l35.93 35.97.105-.103L94.236 166 166 94.158" fill="#FF5B4B" />
    <path d="M50.798 209.28l-35.93 35.968c-19.824 19.847-19.824 52.023 0 71.867 19.823 19.847 51.965 19.847 71.788 0l.912-.91.077.078L166 237.843 94.237 166l-43.335 43.382-.104-.102z" fill="#0F6EFC" />
    <path fill="#292949" d="M94.237 166L166 237.843 237.763 166 166 94.158z" />
  </g>
</svg>