<svg width="237" height="332" xmlns="http://www.w3.org/2000/svg">
  <g fill="none" fill-rule="evenodd">
    <path d="M87.569 16.796l-.912-.912c-19.822-19.845-51.965-19.845-71.789 0-19.824 19.846-19.824 52.023 0 71.869l35.93 35.97.105-.103L94.236 167 166 95.158 87.569 16.796" fill="#FF5B4B"/>
    <path d="M50.902 209.382l-.104-.102-35.93 35.968c-19.824 19.847-19.824 52.023 0 71.867 19.823 19.847 51.965 19.847 71.788 0l.912-.91.077.078L166 237.843 94.237 166l-43.335 43.382" fill="#0F6EFC"/>
    <path fill="#292949" d="M94 166.499L165.5 238l71.5-71.5L165.499 95z"/>
  </g>
</svg>